<mxfile host="app.diagrams.net" agent="Mozilla/5.0 (Windows NT 10.0; Win64; x64) AppleWebKit/537.36 (KHTML, like Gecko) Chrome/134.0.0.0 Safari/537.36" version="26.1.1">
  <diagram id="R2lEEEUBdFMjLlhIrx00" name="Page-1">
    <mxGraphModel dx="1313" dy="703" grid="1" gridSize="10" guides="1" tooltips="1" connect="1" arrows="1" fold="1" page="1" pageScale="1" pageWidth="850" pageHeight="1100" math="0" shadow="0" extFonts="Permanent Marker^https://fonts.googleapis.com/css?family=Permanent+Marker">
      <root>
        <mxCell id="0" />
        <mxCell id="1" parent="0" />
        <mxCell id="JwTfOTong-YGTReolqfG-16" value="" style="group" vertex="1" connectable="0" parent="1">
          <mxGeometry x="40" y="120" width="350" height="270" as="geometry" />
        </mxCell>
        <mxCell id="JwTfOTong-YGTReolqfG-1" value="sifre char(255) NOT NULL HASHED" style="shape=partialRectangle;overflow=hidden;connectable=0;fillColor=none;top=0;left=0;bottom=0;right=0;align=left;spacingLeft=6;" vertex="1" parent="JwTfOTong-YGTReolqfG-16">
          <mxGeometry x="30" y="120" width="270" height="30" as="geometry">
            <mxRectangle width="270" height="30" as="alternateBounds" />
          </mxGeometry>
        </mxCell>
        <mxCell id="C-vyLk0tnHw3VtMMgP7b-23" value="Kullanıcılar" style="shape=table;startSize=30;container=1;collapsible=1;childLayout=tableLayout;fixedRows=1;rowLines=0;fontStyle=1;align=center;resizeLast=1;" parent="JwTfOTong-YGTReolqfG-16" vertex="1">
          <mxGeometry width="350" height="270" as="geometry" />
        </mxCell>
        <mxCell id="C-vyLk0tnHw3VtMMgP7b-24" value="" style="shape=partialRectangle;collapsible=0;dropTarget=0;pointerEvents=0;fillColor=none;points=[[0,0.5],[1,0.5]];portConstraint=eastwest;top=0;left=0;right=0;bottom=1;" parent="C-vyLk0tnHw3VtMMgP7b-23" vertex="1">
          <mxGeometry y="30" width="350" height="30" as="geometry" />
        </mxCell>
        <mxCell id="C-vyLk0tnHw3VtMMgP7b-25" value="PK" style="shape=partialRectangle;overflow=hidden;connectable=0;fillColor=none;top=0;left=0;bottom=0;right=0;fontStyle=1;" parent="C-vyLk0tnHw3VtMMgP7b-24" vertex="1">
          <mxGeometry width="30.000000000000057" height="30" as="geometry">
            <mxRectangle width="30.000000000000057" height="30" as="alternateBounds" />
          </mxGeometry>
        </mxCell>
        <mxCell id="C-vyLk0tnHw3VtMMgP7b-26" value="kullanici_id int NOT NULL " style="shape=partialRectangle;overflow=hidden;connectable=0;fillColor=none;top=0;left=0;bottom=0;right=0;align=left;spacingLeft=6;fontStyle=5;" parent="C-vyLk0tnHw3VtMMgP7b-24" vertex="1">
          <mxGeometry x="30.000000000000057" width="319.99999999999994" height="30" as="geometry">
            <mxRectangle width="319.99999999999994" height="30" as="alternateBounds" />
          </mxGeometry>
        </mxCell>
        <mxCell id="C-vyLk0tnHw3VtMMgP7b-27" value="" style="shape=partialRectangle;collapsible=0;dropTarget=0;pointerEvents=0;fillColor=none;points=[[0,0.5],[1,0.5]];portConstraint=eastwest;top=0;left=0;right=0;bottom=0;" parent="C-vyLk0tnHw3VtMMgP7b-23" vertex="1">
          <mxGeometry y="60" width="350" height="30" as="geometry" />
        </mxCell>
        <mxCell id="C-vyLk0tnHw3VtMMgP7b-28" value="" style="shape=partialRectangle;overflow=hidden;connectable=0;fillColor=none;top=0;left=0;bottom=0;right=0;" parent="C-vyLk0tnHw3VtMMgP7b-27" vertex="1">
          <mxGeometry width="30.000000000000057" height="30" as="geometry">
            <mxRectangle width="30.000000000000057" height="30" as="alternateBounds" />
          </mxGeometry>
        </mxCell>
        <mxCell id="C-vyLk0tnHw3VtMMgP7b-29" value="kullanici_adi char(50) NOT NULL UNIQUE" style="shape=partialRectangle;overflow=hidden;connectable=1;fillColor=none;top=0;left=0;bottom=0;right=0;align=left;spacingLeft=6;container=1;movable=1;resizable=1;rotatable=1;deletable=1;editable=1;locked=0;" parent="C-vyLk0tnHw3VtMMgP7b-27" vertex="1">
          <mxGeometry x="30.000000000000057" width="319.99999999999994" height="30" as="geometry">
            <mxRectangle width="319.99999999999994" height="30" as="alternateBounds" />
          </mxGeometry>
        </mxCell>
        <mxCell id="JwTfOTong-YGTReolqfG-10" value="" style="endArrow=none;html=1;rounded=0;entryX=1.001;entryY=1.081;entryDx=0;entryDy=0;entryPerimeter=0;exitX=0.002;exitY=1.037;exitDx=0;exitDy=0;exitPerimeter=0;" edge="1" parent="C-vyLk0tnHw3VtMMgP7b-23" source="C-vyLk0tnHw3VtMMgP7b-27" target="C-vyLk0tnHw3VtMMgP7b-27">
          <mxGeometry width="50" height="50" relative="1" as="geometry">
            <mxPoint x="-40" y="120" as="sourcePoint" />
            <mxPoint x="10" y="70" as="targetPoint" />
          </mxGeometry>
        </mxCell>
        <mxCell id="JwTfOTong-YGTReolqfG-2" value="" style="shape=partialRectangle;overflow=hidden;connectable=0;fillColor=none;top=0;left=0;bottom=0;right=0;" vertex="1" parent="JwTfOTong-YGTReolqfG-16">
          <mxGeometry y="100" width="30" height="30" as="geometry">
            <mxRectangle width="30" height="30" as="alternateBounds" />
          </mxGeometry>
        </mxCell>
        <mxCell id="JwTfOTong-YGTReolqfG-3" value="" style="endArrow=none;html=1;rounded=0;entryX=0.096;entryY=1.08;entryDx=0;entryDy=0;entryPerimeter=0;" edge="1" parent="JwTfOTong-YGTReolqfG-16">
          <mxGeometry width="50" height="50" relative="1" as="geometry">
            <mxPoint x="30" y="200" as="sourcePoint" />
            <mxPoint x="30.000000000000014" y="89.99999999999997" as="targetPoint" />
          </mxGeometry>
        </mxCell>
        <mxCell id="JwTfOTong-YGTReolqfG-4" value="email char(100) NOT NULL UNIQUE" style="shape=partialRectangle;overflow=hidden;connectable=0;fillColor=none;top=0;left=0;bottom=0;right=0;align=left;spacingLeft=6;" vertex="1" parent="JwTfOTong-YGTReolqfG-16">
          <mxGeometry x="30" y="150" width="270" height="30" as="geometry">
            <mxRectangle width="270" height="30" as="alternateBounds" />
          </mxGeometry>
        </mxCell>
        <mxCell id="JwTfOTong-YGTReolqfG-5" value="rol char(20) NOT NULL" style="shape=partialRectangle;overflow=hidden;connectable=0;fillColor=none;top=0;left=0;bottom=0;right=0;align=left;spacingLeft=6;" vertex="1" parent="JwTfOTong-YGTReolqfG-16">
          <mxGeometry x="30" y="180" width="270" height="30" as="geometry">
            <mxRectangle width="270" height="30" as="alternateBounds" />
          </mxGeometry>
        </mxCell>
        <mxCell id="JwTfOTong-YGTReolqfG-6" value="olusturulma_tarihi datetime NOT NULL" style="shape=partialRectangle;overflow=hidden;connectable=0;fillColor=none;top=0;left=0;bottom=0;right=0;align=left;spacingLeft=6;" vertex="1" parent="JwTfOTong-YGTReolqfG-16">
          <mxGeometry x="30" y="210" width="270" height="30" as="geometry">
            <mxRectangle width="270" height="30" as="alternateBounds" />
          </mxGeometry>
        </mxCell>
        <mxCell id="JwTfOTong-YGTReolqfG-7" value="guncellenme_tarihi datetime " style="shape=partialRectangle;overflow=hidden;connectable=0;fillColor=none;top=0;left=0;bottom=0;right=0;align=left;spacingLeft=6;" vertex="1" parent="JwTfOTong-YGTReolqfG-16">
          <mxGeometry x="30" y="240" width="280" height="30" as="geometry">
            <mxRectangle width="270" height="30" as="alternateBounds" />
          </mxGeometry>
        </mxCell>
        <mxCell id="JwTfOTong-YGTReolqfG-8" value="isim char(255) NOT NULL" style="shape=partialRectangle;overflow=hidden;connectable=0;fillColor=none;top=0;left=0;bottom=0;right=0;align=left;spacingLeft=6;" vertex="1" parent="JwTfOTong-YGTReolqfG-16">
          <mxGeometry x="30" y="90" width="270" height="30" as="geometry">
            <mxRectangle width="270" height="30" as="alternateBounds" />
          </mxGeometry>
        </mxCell>
        <mxCell id="JwTfOTong-YGTReolqfG-9" value="" style="endArrow=none;html=1;rounded=0;" edge="1" parent="JwTfOTong-YGTReolqfG-16">
          <mxGeometry width="50" height="50" relative="1" as="geometry">
            <mxPoint x="30" y="270" as="sourcePoint" />
            <mxPoint x="30" y="200" as="targetPoint" />
          </mxGeometry>
        </mxCell>
        <mxCell id="JwTfOTong-YGTReolqfG-11" value="" style="endArrow=none;html=1;rounded=0;entryX=1.001;entryY=1.081;entryDx=0;entryDy=0;entryPerimeter=0;exitX=0.002;exitY=1.037;exitDx=0;exitDy=0;exitPerimeter=0;" edge="1" parent="JwTfOTong-YGTReolqfG-16">
          <mxGeometry width="50" height="50" relative="1" as="geometry">
            <mxPoint x="1" y="120" as="sourcePoint" />
            <mxPoint x="350" y="121" as="targetPoint" />
          </mxGeometry>
        </mxCell>
        <mxCell id="JwTfOTong-YGTReolqfG-12" value="" style="endArrow=none;html=1;rounded=0;entryX=1.001;entryY=1.081;entryDx=0;entryDy=0;entryPerimeter=0;exitX=0.002;exitY=1.037;exitDx=0;exitDy=0;exitPerimeter=0;" edge="1" parent="JwTfOTong-YGTReolqfG-16">
          <mxGeometry width="50" height="50" relative="1" as="geometry">
            <mxPoint x="1" y="149" as="sourcePoint" />
            <mxPoint x="350" y="150" as="targetPoint" />
          </mxGeometry>
        </mxCell>
        <mxCell id="JwTfOTong-YGTReolqfG-13" value="" style="endArrow=none;html=1;rounded=0;entryX=1.001;entryY=1.081;entryDx=0;entryDy=0;entryPerimeter=0;exitX=0.002;exitY=1.037;exitDx=0;exitDy=0;exitPerimeter=0;" edge="1" parent="JwTfOTong-YGTReolqfG-16">
          <mxGeometry width="50" height="50" relative="1" as="geometry">
            <mxPoint x="1" y="179" as="sourcePoint" />
            <mxPoint x="350" y="180" as="targetPoint" />
          </mxGeometry>
        </mxCell>
        <mxCell id="JwTfOTong-YGTReolqfG-14" value="" style="endArrow=none;html=1;rounded=0;entryX=1.001;entryY=1.081;entryDx=0;entryDy=0;entryPerimeter=0;exitX=0.002;exitY=1.037;exitDx=0;exitDy=0;exitPerimeter=0;" edge="1" parent="JwTfOTong-YGTReolqfG-16">
          <mxGeometry width="50" height="50" relative="1" as="geometry">
            <mxPoint x="1" y="209" as="sourcePoint" />
            <mxPoint x="350" y="210" as="targetPoint" />
          </mxGeometry>
        </mxCell>
        <mxCell id="JwTfOTong-YGTReolqfG-15" value="" style="endArrow=none;html=1;rounded=0;entryX=1.001;entryY=1.081;entryDx=0;entryDy=0;entryPerimeter=0;exitX=0.002;exitY=1.037;exitDx=0;exitDy=0;exitPerimeter=0;" edge="1" parent="JwTfOTong-YGTReolqfG-16">
          <mxGeometry width="50" height="50" relative="1" as="geometry">
            <mxPoint x="1" y="239" as="sourcePoint" />
            <mxPoint x="350" y="240" as="targetPoint" />
          </mxGeometry>
        </mxCell>
        <mxCell id="JwTfOTong-YGTReolqfG-21" value="" style="group" vertex="1" connectable="0" parent="1">
          <mxGeometry x="40" y="410" width="315" height="150" as="geometry" />
        </mxCell>
        <mxCell id="C-vyLk0tnHw3VtMMgP7b-13" value="Masalar" style="shape=table;startSize=30;container=1;collapsible=1;childLayout=tableLayout;fixedRows=1;rowLines=0;fontStyle=1;align=center;resizeLast=1;" parent="JwTfOTong-YGTReolqfG-21" vertex="1">
          <mxGeometry width="315" height="150" as="geometry" />
        </mxCell>
        <mxCell id="C-vyLk0tnHw3VtMMgP7b-14" value="" style="shape=partialRectangle;collapsible=0;dropTarget=0;pointerEvents=0;fillColor=none;points=[[0,0.5],[1,0.5]];portConstraint=eastwest;top=0;left=0;right=0;bottom=1;" parent="C-vyLk0tnHw3VtMMgP7b-13" vertex="1">
          <mxGeometry y="30" width="315" height="30" as="geometry" />
        </mxCell>
        <mxCell id="C-vyLk0tnHw3VtMMgP7b-15" value="PK" style="shape=partialRectangle;overflow=hidden;connectable=0;fillColor=none;top=0;left=0;bottom=0;right=0;fontStyle=1;" parent="C-vyLk0tnHw3VtMMgP7b-14" vertex="1">
          <mxGeometry width="30" height="30" as="geometry">
            <mxRectangle width="30" height="30" as="alternateBounds" />
          </mxGeometry>
        </mxCell>
        <mxCell id="C-vyLk0tnHw3VtMMgP7b-16" value="masa_id int NOT NULL " style="shape=partialRectangle;overflow=hidden;connectable=0;fillColor=none;top=0;left=0;bottom=0;right=0;align=left;spacingLeft=6;fontStyle=5;" parent="C-vyLk0tnHw3VtMMgP7b-14" vertex="1">
          <mxGeometry x="30" width="285" height="30" as="geometry">
            <mxRectangle width="285" height="30" as="alternateBounds" />
          </mxGeometry>
        </mxCell>
        <mxCell id="C-vyLk0tnHw3VtMMgP7b-17" value="" style="shape=partialRectangle;collapsible=0;dropTarget=0;pointerEvents=0;fillColor=none;points=[[0,0.5],[1,0.5]];portConstraint=eastwest;top=0;left=0;right=0;bottom=0;" parent="C-vyLk0tnHw3VtMMgP7b-13" vertex="1">
          <mxGeometry y="60" width="315" height="30" as="geometry" />
        </mxCell>
        <mxCell id="C-vyLk0tnHw3VtMMgP7b-18" value="" style="shape=partialRectangle;overflow=hidden;connectable=0;fillColor=none;top=0;left=0;bottom=0;right=0;" parent="C-vyLk0tnHw3VtMMgP7b-17" vertex="1">
          <mxGeometry width="30" height="30" as="geometry">
            <mxRectangle width="30" height="30" as="alternateBounds" />
          </mxGeometry>
        </mxCell>
        <mxCell id="C-vyLk0tnHw3VtMMgP7b-19" value="masa_numarasi int NOT NULL" style="shape=partialRectangle;overflow=hidden;connectable=0;fillColor=none;top=0;left=0;bottom=0;right=0;align=left;spacingLeft=6;" parent="C-vyLk0tnHw3VtMMgP7b-17" vertex="1">
          <mxGeometry x="30" width="285" height="30" as="geometry">
            <mxRectangle width="285" height="30" as="alternateBounds" />
          </mxGeometry>
        </mxCell>
        <mxCell id="C-vyLk0tnHw3VtMMgP7b-20" value="" style="shape=partialRectangle;collapsible=0;dropTarget=0;pointerEvents=0;fillColor=none;points=[[0,0.5],[1,0.5]];portConstraint=eastwest;top=0;left=0;right=0;bottom=0;" parent="C-vyLk0tnHw3VtMMgP7b-13" vertex="1">
          <mxGeometry y="90" width="315" height="30" as="geometry" />
        </mxCell>
        <mxCell id="C-vyLk0tnHw3VtMMgP7b-21" value="" style="shape=partialRectangle;overflow=hidden;connectable=0;fillColor=none;top=0;left=0;bottom=0;right=0;" parent="C-vyLk0tnHw3VtMMgP7b-20" vertex="1">
          <mxGeometry width="30" height="30" as="geometry">
            <mxRectangle width="30" height="30" as="alternateBounds" />
          </mxGeometry>
        </mxCell>
        <mxCell id="C-vyLk0tnHw3VtMMgP7b-22" value="kapasite int NOT NULL" style="shape=partialRectangle;overflow=hidden;connectable=0;fillColor=none;top=0;left=0;bottom=0;right=0;align=left;spacingLeft=6;" parent="C-vyLk0tnHw3VtMMgP7b-20" vertex="1">
          <mxGeometry x="30" width="285" height="30" as="geometry">
            <mxRectangle width="285" height="30" as="alternateBounds" />
          </mxGeometry>
        </mxCell>
        <mxCell id="JwTfOTong-YGTReolqfG-19" value="" style="endArrow=none;html=1;rounded=0;entryX=0.999;entryY=-0.005;entryDx=0;entryDy=0;entryPerimeter=0;exitX=-0.002;exitY=1.016;exitDx=0;exitDy=0;exitPerimeter=0;" edge="1" parent="C-vyLk0tnHw3VtMMgP7b-13" source="C-vyLk0tnHw3VtMMgP7b-17" target="C-vyLk0tnHw3VtMMgP7b-20">
          <mxGeometry width="50" height="50" relative="1" as="geometry">
            <mxPoint x="-138.6" y="220" as="sourcePoint" />
            <mxPoint x="-75.60000000000001" y="170" as="targetPoint" />
          </mxGeometry>
        </mxCell>
        <mxCell id="JwTfOTong-YGTReolqfG-17" value="durum VARCHAR(20) NOT NULL &#xa;CHECK (&#39;boş&#39;, &#39;dolu&#39;, &#39;rezerve&#39;, &#39;bakımda&#39;)&#xa;" style="shape=partialRectangle;overflow=hidden;connectable=0;fillColor=none;top=0;left=0;bottom=0;right=0;align=left;spacingLeft=6;" vertex="1" parent="JwTfOTong-YGTReolqfG-21">
          <mxGeometry x="31.5" y="120" width="277.2" height="30" as="geometry">
            <mxRectangle width="220" height="30" as="alternateBounds" />
          </mxGeometry>
        </mxCell>
        <mxCell id="JwTfOTong-YGTReolqfG-18" value="" style="endArrow=none;html=1;rounded=0;" edge="1" parent="JwTfOTong-YGTReolqfG-21">
          <mxGeometry width="50" height="50" relative="1" as="geometry">
            <mxPoint x="31.5" y="150" as="sourcePoint" />
            <mxPoint x="31.5" y="120" as="targetPoint" />
            <Array as="points">
              <mxPoint x="31.5" y="130" />
            </Array>
          </mxGeometry>
        </mxCell>
        <mxCell id="JwTfOTong-YGTReolqfG-20" value="" style="endArrow=none;html=1;rounded=0;entryX=0.999;entryY=-0.005;entryDx=0;entryDy=0;entryPerimeter=0;exitX=-0.002;exitY=1.016;exitDx=0;exitDy=0;exitPerimeter=0;" edge="1" parent="JwTfOTong-YGTReolqfG-21">
          <mxGeometry width="50" height="50" relative="1" as="geometry">
            <mxPoint y="120" as="sourcePoint" />
            <mxPoint x="315" y="120" as="targetPoint" />
          </mxGeometry>
        </mxCell>
        <mxCell id="JwTfOTong-YGTReolqfG-22" value="" style="group" vertex="1" connectable="0" parent="1">
          <mxGeometry x="490" y="370" width="350" height="270" as="geometry" />
        </mxCell>
        <mxCell id="JwTfOTong-YGTReolqfG-23" value="rezervasyon_tarihi datetime NOT NULL" style="shape=partialRectangle;overflow=hidden;connectable=0;fillColor=none;top=0;left=0;bottom=0;right=0;align=left;spacingLeft=6;" vertex="1" parent="JwTfOTong-YGTReolqfG-22">
          <mxGeometry x="30" y="120" width="270" height="30" as="geometry">
            <mxRectangle width="270" height="30" as="alternateBounds" />
          </mxGeometry>
        </mxCell>
        <mxCell id="JwTfOTong-YGTReolqfG-24" value="Rezervasyonlar" style="shape=table;startSize=30;container=1;collapsible=1;childLayout=tableLayout;fixedRows=1;rowLines=0;fontStyle=1;align=center;resizeLast=1;" vertex="1" parent="JwTfOTong-YGTReolqfG-22">
          <mxGeometry width="350" height="270" as="geometry" />
        </mxCell>
        <mxCell id="JwTfOTong-YGTReolqfG-25" value="" style="shape=partialRectangle;collapsible=0;dropTarget=0;pointerEvents=0;fillColor=none;points=[[0,0.5],[1,0.5]];portConstraint=eastwest;top=0;left=0;right=0;bottom=1;" vertex="1" parent="JwTfOTong-YGTReolqfG-24">
          <mxGeometry y="30" width="350" height="30" as="geometry" />
        </mxCell>
        <mxCell id="JwTfOTong-YGTReolqfG-26" value="PK" style="shape=partialRectangle;overflow=hidden;connectable=0;fillColor=none;top=0;left=0;bottom=0;right=0;fontStyle=1;" vertex="1" parent="JwTfOTong-YGTReolqfG-25">
          <mxGeometry width="30.000000000000057" height="30" as="geometry">
            <mxRectangle width="30.000000000000057" height="30" as="alternateBounds" />
          </mxGeometry>
        </mxCell>
        <mxCell id="JwTfOTong-YGTReolqfG-27" value="rezervasyon_id int NOT NULL " style="shape=partialRectangle;overflow=hidden;connectable=0;fillColor=none;top=0;left=0;bottom=0;right=0;align=left;spacingLeft=6;fontStyle=5;" vertex="1" parent="JwTfOTong-YGTReolqfG-25">
          <mxGeometry x="30.000000000000057" width="319.99999999999994" height="30" as="geometry">
            <mxRectangle width="319.99999999999994" height="30" as="alternateBounds" />
          </mxGeometry>
        </mxCell>
        <mxCell id="JwTfOTong-YGTReolqfG-28" value="" style="shape=partialRectangle;collapsible=0;dropTarget=0;pointerEvents=0;fillColor=none;points=[[0,0.5],[1,0.5]];portConstraint=eastwest;top=0;left=0;right=0;bottom=0;" vertex="1" parent="JwTfOTong-YGTReolqfG-24">
          <mxGeometry y="60" width="350" height="30" as="geometry" />
        </mxCell>
        <mxCell id="JwTfOTong-YGTReolqfG-29" value="FK" style="shape=partialRectangle;overflow=hidden;connectable=0;fillColor=none;top=0;left=0;bottom=0;right=0;" vertex="1" parent="JwTfOTong-YGTReolqfG-28">
          <mxGeometry width="30.000000000000057" height="30" as="geometry">
            <mxRectangle width="30.000000000000057" height="30" as="alternateBounds" />
          </mxGeometry>
        </mxCell>
        <mxCell id="JwTfOTong-YGTReolqfG-30" value="kullanici_id int NOT NULL" style="shape=partialRectangle;overflow=hidden;connectable=1;fillColor=none;top=0;left=0;bottom=0;right=0;align=left;spacingLeft=6;container=1;movable=1;resizable=1;rotatable=1;deletable=1;editable=1;locked=0;" vertex="1" parent="JwTfOTong-YGTReolqfG-28">
          <mxGeometry x="30.000000000000057" width="319.99999999999994" height="30" as="geometry">
            <mxRectangle width="319.99999999999994" height="30" as="alternateBounds" />
          </mxGeometry>
        </mxCell>
        <mxCell id="JwTfOTong-YGTReolqfG-31" value="" style="endArrow=none;html=1;rounded=0;entryX=1.001;entryY=1.081;entryDx=0;entryDy=0;entryPerimeter=0;exitX=0.002;exitY=1.037;exitDx=0;exitDy=0;exitPerimeter=0;" edge="1" parent="JwTfOTong-YGTReolqfG-24" source="JwTfOTong-YGTReolqfG-28" target="JwTfOTong-YGTReolqfG-28">
          <mxGeometry width="50" height="50" relative="1" as="geometry">
            <mxPoint x="-40" y="120" as="sourcePoint" />
            <mxPoint x="10" y="70" as="targetPoint" />
          </mxGeometry>
        </mxCell>
        <mxCell id="JwTfOTong-YGTReolqfG-32" value="FK" style="shape=partialRectangle;overflow=hidden;connectable=0;fillColor=none;top=0;left=0;bottom=0;right=0;" vertex="1" parent="JwTfOTong-YGTReolqfG-22">
          <mxGeometry y="90" width="30" height="30" as="geometry">
            <mxRectangle width="30" height="30" as="alternateBounds" />
          </mxGeometry>
        </mxCell>
        <mxCell id="JwTfOTong-YGTReolqfG-33" value="" style="endArrow=none;html=1;rounded=0;entryX=0.096;entryY=1.08;entryDx=0;entryDy=0;entryPerimeter=0;" edge="1" parent="JwTfOTong-YGTReolqfG-22">
          <mxGeometry width="50" height="50" relative="1" as="geometry">
            <mxPoint x="30" y="200" as="sourcePoint" />
            <mxPoint x="30.000000000000014" y="89.99999999999997" as="targetPoint" />
          </mxGeometry>
        </mxCell>
        <mxCell id="JwTfOTong-YGTReolqfG-34" value="kisi_sayisi int NOT NULL   " style="shape=partialRectangle;overflow=hidden;connectable=0;fillColor=none;top=0;left=0;bottom=0;right=0;align=left;spacingLeft=6;" vertex="1" parent="JwTfOTong-YGTReolqfG-22">
          <mxGeometry x="30" y="150" width="270" height="30" as="geometry">
            <mxRectangle width="270" height="30" as="alternateBounds" />
          </mxGeometry>
        </mxCell>
        <mxCell id="JwTfOTong-YGTReolqfG-35" value="durum VARCHAR(20) NOT NULL &#xa;CHECK (&#39;onaylandı&#39;, &#39;beklemede&#39;, &#39;iptal edildi&#39;)&#xa;" style="shape=partialRectangle;overflow=hidden;connectable=0;fillColor=none;top=0;left=0;bottom=0;right=0;align=left;spacingLeft=6;" vertex="1" parent="JwTfOTong-YGTReolqfG-22">
          <mxGeometry x="30" y="180" width="270" height="30" as="geometry">
            <mxRectangle width="270" height="30" as="alternateBounds" />
          </mxGeometry>
        </mxCell>
        <mxCell id="JwTfOTong-YGTReolqfG-36" value="olusturulma_tarihi datetime NOT NULL" style="shape=partialRectangle;overflow=hidden;connectable=0;fillColor=none;top=0;left=0;bottom=0;right=0;align=left;spacingLeft=6;" vertex="1" parent="JwTfOTong-YGTReolqfG-22">
          <mxGeometry x="30" y="210" width="270" height="30" as="geometry">
            <mxRectangle width="270" height="30" as="alternateBounds" />
          </mxGeometry>
        </mxCell>
        <mxCell id="JwTfOTong-YGTReolqfG-37" value="guncellenme_tarihi datetime " style="shape=partialRectangle;overflow=hidden;connectable=0;fillColor=none;top=0;left=0;bottom=0;right=0;align=left;spacingLeft=6;" vertex="1" parent="JwTfOTong-YGTReolqfG-22">
          <mxGeometry x="30" y="240" width="280" height="30" as="geometry">
            <mxRectangle width="270" height="30" as="alternateBounds" />
          </mxGeometry>
        </mxCell>
        <mxCell id="JwTfOTong-YGTReolqfG-39" value="" style="endArrow=none;html=1;rounded=0;" edge="1" parent="JwTfOTong-YGTReolqfG-22">
          <mxGeometry width="50" height="50" relative="1" as="geometry">
            <mxPoint x="30" y="270" as="sourcePoint" />
            <mxPoint x="30" y="200" as="targetPoint" />
          </mxGeometry>
        </mxCell>
        <mxCell id="JwTfOTong-YGTReolqfG-40" value="" style="endArrow=none;html=1;rounded=0;entryX=1.001;entryY=1.081;entryDx=0;entryDy=0;entryPerimeter=0;exitX=0.002;exitY=1.037;exitDx=0;exitDy=0;exitPerimeter=0;" edge="1" parent="JwTfOTong-YGTReolqfG-22">
          <mxGeometry width="50" height="50" relative="1" as="geometry">
            <mxPoint x="1" y="120" as="sourcePoint" />
            <mxPoint x="350" y="121" as="targetPoint" />
          </mxGeometry>
        </mxCell>
        <mxCell id="JwTfOTong-YGTReolqfG-41" value="" style="endArrow=none;html=1;rounded=0;entryX=1.001;entryY=1.081;entryDx=0;entryDy=0;entryPerimeter=0;exitX=0.002;exitY=1.037;exitDx=0;exitDy=0;exitPerimeter=0;" edge="1" parent="JwTfOTong-YGTReolqfG-22">
          <mxGeometry width="50" height="50" relative="1" as="geometry">
            <mxPoint x="1" y="149" as="sourcePoint" />
            <mxPoint x="350" y="150" as="targetPoint" />
          </mxGeometry>
        </mxCell>
        <mxCell id="JwTfOTong-YGTReolqfG-42" value="" style="endArrow=none;html=1;rounded=0;entryX=1.001;entryY=1.081;entryDx=0;entryDy=0;entryPerimeter=0;exitX=0.002;exitY=1.037;exitDx=0;exitDy=0;exitPerimeter=0;" edge="1" parent="JwTfOTong-YGTReolqfG-22">
          <mxGeometry width="50" height="50" relative="1" as="geometry">
            <mxPoint x="1" y="179" as="sourcePoint" />
            <mxPoint x="350" y="180" as="targetPoint" />
          </mxGeometry>
        </mxCell>
        <mxCell id="JwTfOTong-YGTReolqfG-43" value="" style="endArrow=none;html=1;rounded=0;entryX=1.001;entryY=1.081;entryDx=0;entryDy=0;entryPerimeter=0;exitX=0.002;exitY=1.037;exitDx=0;exitDy=0;exitPerimeter=0;" edge="1" parent="JwTfOTong-YGTReolqfG-22">
          <mxGeometry width="50" height="50" relative="1" as="geometry">
            <mxPoint x="1" y="209" as="sourcePoint" />
            <mxPoint x="350" y="210" as="targetPoint" />
          </mxGeometry>
        </mxCell>
        <mxCell id="JwTfOTong-YGTReolqfG-44" value="" style="endArrow=none;html=1;rounded=0;entryX=1.001;entryY=1.081;entryDx=0;entryDy=0;entryPerimeter=0;exitX=0.002;exitY=1.037;exitDx=0;exitDy=0;exitPerimeter=0;" edge="1" parent="JwTfOTong-YGTReolqfG-22">
          <mxGeometry width="50" height="50" relative="1" as="geometry">
            <mxPoint x="1" y="239" as="sourcePoint" />
            <mxPoint x="350" y="240" as="targetPoint" />
          </mxGeometry>
        </mxCell>
        <mxCell id="JwTfOTong-YGTReolqfG-94" value="masa_id int NOT NULL" style="shape=partialRectangle;overflow=hidden;connectable=0;fillColor=none;top=0;left=0;bottom=0;right=0;align=left;spacingLeft=6;" vertex="1" parent="JwTfOTong-YGTReolqfG-22">
          <mxGeometry x="30" y="90" width="270" height="30" as="geometry">
            <mxRectangle width="270" height="30" as="alternateBounds" />
          </mxGeometry>
        </mxCell>
        <mxCell id="JwTfOTong-YGTReolqfG-85" value="" style="group" vertex="1" connectable="0" parent="1">
          <mxGeometry x="570" y="120" width="270" height="240" as="geometry" />
        </mxCell>
        <mxCell id="JwTfOTong-YGTReolqfG-58" value="" style="group" vertex="1" connectable="0" parent="JwTfOTong-YGTReolqfG-85">
          <mxGeometry width="270" height="240" as="geometry" />
        </mxCell>
        <mxCell id="JwTfOTong-YGTReolqfG-84" value="" style="group" vertex="1" connectable="0" parent="JwTfOTong-YGTReolqfG-58">
          <mxGeometry width="270" height="210" as="geometry" />
        </mxCell>
        <mxCell id="JwTfOTong-YGTReolqfG-59" value="Ödemeler" style="shape=table;startSize=30;container=1;collapsible=1;childLayout=tableLayout;fixedRows=1;rowLines=0;fontStyle=1;align=center;resizeLast=1;" vertex="1" parent="JwTfOTong-YGTReolqfG-84">
          <mxGeometry width="270" height="210" as="geometry" />
        </mxCell>
        <mxCell id="JwTfOTong-YGTReolqfG-60" value="" style="shape=partialRectangle;collapsible=0;dropTarget=0;pointerEvents=0;fillColor=none;points=[[0,0.5],[1,0.5]];portConstraint=eastwest;top=0;left=0;right=0;bottom=1;" vertex="1" parent="JwTfOTong-YGTReolqfG-59">
          <mxGeometry y="30" width="270" height="30" as="geometry" />
        </mxCell>
        <mxCell id="JwTfOTong-YGTReolqfG-61" value="PK" style="shape=partialRectangle;overflow=hidden;connectable=0;fillColor=none;top=0;left=0;bottom=0;right=0;fontStyle=1;" vertex="1" parent="JwTfOTong-YGTReolqfG-60">
          <mxGeometry width="30" height="30" as="geometry">
            <mxRectangle width="30" height="30" as="alternateBounds" />
          </mxGeometry>
        </mxCell>
        <mxCell id="JwTfOTong-YGTReolqfG-62" value="odeme_id int NOT NULL " style="shape=partialRectangle;overflow=hidden;connectable=0;fillColor=none;top=0;left=0;bottom=0;right=0;align=left;spacingLeft=6;fontStyle=5;" vertex="1" parent="JwTfOTong-YGTReolqfG-60">
          <mxGeometry x="30" width="240" height="30" as="geometry">
            <mxRectangle width="240" height="30" as="alternateBounds" />
          </mxGeometry>
        </mxCell>
        <mxCell id="JwTfOTong-YGTReolqfG-63" value="" style="shape=partialRectangle;collapsible=0;dropTarget=0;pointerEvents=0;fillColor=none;points=[[0,0.5],[1,0.5]];portConstraint=eastwest;top=0;left=0;right=0;bottom=0;" vertex="1" parent="JwTfOTong-YGTReolqfG-59">
          <mxGeometry y="60" width="270" height="30" as="geometry" />
        </mxCell>
        <mxCell id="JwTfOTong-YGTReolqfG-64" value="FK" style="shape=partialRectangle;overflow=hidden;connectable=0;fillColor=none;top=0;left=0;bottom=0;right=0;" vertex="1" parent="JwTfOTong-YGTReolqfG-63">
          <mxGeometry width="30" height="30" as="geometry">
            <mxRectangle width="30" height="30" as="alternateBounds" />
          </mxGeometry>
        </mxCell>
        <mxCell id="JwTfOTong-YGTReolqfG-65" value="rezervasyon_id int NOT NULL" style="shape=partialRectangle;overflow=hidden;connectable=0;fillColor=none;top=0;left=0;bottom=0;right=0;align=left;spacingLeft=6;" vertex="1" parent="JwTfOTong-YGTReolqfG-63">
          <mxGeometry x="30" width="240" height="30" as="geometry">
            <mxRectangle width="240" height="30" as="alternateBounds" />
          </mxGeometry>
        </mxCell>
        <mxCell id="JwTfOTong-YGTReolqfG-66" value="" style="shape=partialRectangle;collapsible=0;dropTarget=0;pointerEvents=0;fillColor=none;points=[[0,0.5],[1,0.5]];portConstraint=eastwest;top=0;left=0;right=0;bottom=0;" vertex="1" parent="JwTfOTong-YGTReolqfG-59">
          <mxGeometry y="90" width="270" height="30" as="geometry" />
        </mxCell>
        <mxCell id="JwTfOTong-YGTReolqfG-67" value="" style="shape=partialRectangle;overflow=hidden;connectable=0;fillColor=none;top=0;left=0;bottom=0;right=0;" vertex="1" parent="JwTfOTong-YGTReolqfG-66">
          <mxGeometry width="30" height="30" as="geometry">
            <mxRectangle width="30" height="30" as="alternateBounds" />
          </mxGeometry>
        </mxCell>
        <mxCell id="JwTfOTong-YGTReolqfG-68" value="tutar int NOT NULL" style="shape=partialRectangle;overflow=hidden;connectable=0;fillColor=none;top=0;left=0;bottom=0;right=0;align=left;spacingLeft=6;" vertex="1" parent="JwTfOTong-YGTReolqfG-66">
          <mxGeometry x="30" width="240" height="30" as="geometry">
            <mxRectangle width="240" height="30" as="alternateBounds" />
          </mxGeometry>
        </mxCell>
        <mxCell id="JwTfOTong-YGTReolqfG-69" value="" style="endArrow=none;html=1;rounded=0;entryX=0.999;entryY=-0.005;entryDx=0;entryDy=0;entryPerimeter=0;exitX=-0.002;exitY=1.016;exitDx=0;exitDy=0;exitPerimeter=0;" edge="1" parent="JwTfOTong-YGTReolqfG-59" source="JwTfOTong-YGTReolqfG-63" target="JwTfOTong-YGTReolqfG-66">
          <mxGeometry width="50" height="50" relative="1" as="geometry">
            <mxPoint x="-118.80000000000001" y="352" as="sourcePoint" />
            <mxPoint x="-64.8" y="272" as="targetPoint" />
          </mxGeometry>
        </mxCell>
        <mxCell id="JwTfOTong-YGTReolqfG-70" value="durum VARCHAR(20) NOT NULL &#xa;CHECK (&#39;ödendi&#39;, &#39;beklemede&#39;, &#39;başarısız&#39;)&#xa;" style="shape=partialRectangle;overflow=hidden;connectable=0;fillColor=none;top=0;left=0;bottom=0;right=0;align=left;spacingLeft=6;" vertex="1" parent="JwTfOTong-YGTReolqfG-84">
          <mxGeometry x="32.4" y="180" width="237.60000000000002" height="30" as="geometry">
            <mxRectangle width="220" height="30" as="alternateBounds" />
          </mxGeometry>
        </mxCell>
        <mxCell id="JwTfOTong-YGTReolqfG-73" value="odeme_yontemi char(50) NOT NULL" style="shape=partialRectangle;overflow=hidden;connectable=0;fillColor=none;top=0;left=0;bottom=0;right=0;align=left;spacingLeft=6;" vertex="1" parent="JwTfOTong-YGTReolqfG-84">
          <mxGeometry x="32.4" y="120" width="237.60000000000002" height="30" as="geometry">
            <mxRectangle width="220" height="30" as="alternateBounds" />
          </mxGeometry>
        </mxCell>
        <mxCell id="JwTfOTong-YGTReolqfG-74" value="odeme_tarihi datetime" style="shape=partialRectangle;overflow=hidden;connectable=0;fillColor=none;top=0;left=0;bottom=0;right=0;align=left;spacingLeft=6;" vertex="1" parent="JwTfOTong-YGTReolqfG-84">
          <mxGeometry x="32.4" y="150" width="237.60000000000002" height="30" as="geometry">
            <mxRectangle width="220" height="30" as="alternateBounds" />
          </mxGeometry>
        </mxCell>
        <mxCell id="JwTfOTong-YGTReolqfG-82" value="" style="endArrow=none;html=1;rounded=0;" edge="1" parent="JwTfOTong-YGTReolqfG-84">
          <mxGeometry width="50" height="50" relative="1" as="geometry">
            <mxPoint y="180" as="sourcePoint" />
            <mxPoint x="270" y="180" as="targetPoint" />
          </mxGeometry>
        </mxCell>
        <mxCell id="JwTfOTong-YGTReolqfG-79" value="" style="endArrow=none;html=1;rounded=0;" edge="1" parent="JwTfOTong-YGTReolqfG-84">
          <mxGeometry width="50" height="50" relative="1" as="geometry">
            <mxPoint x="30.566037735849058" y="210" as="sourcePoint" />
            <mxPoint x="30.566037735849058" y="120" as="targetPoint" />
          </mxGeometry>
        </mxCell>
        <mxCell id="JwTfOTong-YGTReolqfG-81" value="" style="endArrow=none;html=1;rounded=0;" edge="1" parent="JwTfOTong-YGTReolqfG-85">
          <mxGeometry width="50" height="50" relative="1" as="geometry">
            <mxPoint y="150" as="sourcePoint" />
            <mxPoint x="270" y="150" as="targetPoint" />
          </mxGeometry>
        </mxCell>
        <mxCell id="JwTfOTong-YGTReolqfG-83" value="" style="endArrow=none;html=1;rounded=0;" edge="1" parent="JwTfOTong-YGTReolqfG-85">
          <mxGeometry width="50" height="50" relative="1" as="geometry">
            <mxPoint y="119.76999999999998" as="sourcePoint" />
            <mxPoint x="270" y="119.76999999999998" as="targetPoint" />
          </mxGeometry>
        </mxCell>
        <mxCell id="JwTfOTong-YGTReolqfG-86" value="" style="edgeStyle=entityRelationEdgeStyle;fontSize=12;html=1;endArrow=ERoneToMany;rounded=0;exitX=1;exitY=0.5;exitDx=0;exitDy=0;entryX=0;entryY=0.5;entryDx=0;entryDy=0;" edge="1" parent="1" source="C-vyLk0tnHw3VtMMgP7b-24" target="JwTfOTong-YGTReolqfG-28">
          <mxGeometry width="100" height="100" relative="1" as="geometry">
            <mxPoint x="460" y="380" as="sourcePoint" />
            <mxPoint x="560" y="280" as="targetPoint" />
            <Array as="points">
              <mxPoint x="420" y="310" />
              <mxPoint x="420" y="310" />
              <mxPoint x="460" y="300" />
              <mxPoint x="420" y="320" />
              <mxPoint x="430" y="310" />
            </Array>
          </mxGeometry>
        </mxCell>
        <mxCell id="JwTfOTong-YGTReolqfG-100" value="" style="endArrow=none;html=1;rounded=0;exitX=1;exitY=0.5;exitDx=0;exitDy=0;" edge="1" parent="1" source="C-vyLk0tnHw3VtMMgP7b-14">
          <mxGeometry relative="1" as="geometry">
            <mxPoint x="310" y="480" as="sourcePoint" />
            <mxPoint x="490" y="480" as="targetPoint" />
          </mxGeometry>
        </mxCell>
        <mxCell id="JwTfOTong-YGTReolqfG-101" value="" style="endArrow=none;html=1;rounded=0;entryX=0;entryY=0.5;entryDx=0;entryDy=0;exitX=0;exitY=0.5;exitDx=0;exitDy=0;" edge="1" parent="1" source="JwTfOTong-YGTReolqfG-63" target="JwTfOTong-YGTReolqfG-25">
          <mxGeometry relative="1" as="geometry">
            <mxPoint x="300" y="440" as="sourcePoint" />
            <mxPoint x="460" y="440" as="targetPoint" />
            <Array as="points">
              <mxPoint x="470" y="195" />
              <mxPoint x="470" y="415" />
            </Array>
          </mxGeometry>
        </mxCell>
      </root>
    </mxGraphModel>
  </diagram>
</mxfile>
